<?xml version="1.0" standalone="no"?>
<!DOCTYPE svg PUBLIC "-//W3C//DTD SVG 20010904//EN"
 "http://www.w3.org/TR/2001/REC-SVG-20010904/DTD/svg10.dtd">
<svg version="1.0" xmlns="http://www.w3.org/2000/svg"
 width="413.000000pt" height="372.000000pt" viewBox="0 0 413.000000 372.000000"
 preserveAspectRatio="xMidYMid meet">

<g transform="translate(0.000000,372.000000) scale(0.100000,-0.100000)"
fill="#000000" stroke="none">
<path d="M0 1860 l0 -1860 2065 0 2065 0 0 1860 0 1860 -2065 0 -2065 0 0
-1860z m1961 1580 c36 -20 14 -76 -27 -68 -31 6 -40 34 -20 57 22 24 21 24 47
11z m-38 -120 c4 -14 14 -20 35 -20 38 0 53 -19 60 -78 3 -26 14 -59 24 -73
48 -65 28 -172 -45 -234 -39 -34 -40 -35 -15 -35 42 0 179 -75 232 -127 107
-105 157 -214 164 -358 7 -163 -42 -297 -150 -408 l-58 -59 60 -66 c64 -70
135 -166 238 -324 l64 -96 138 141 c151 153 159 167 145 260 -5 34 -3 48 10
60 34 34 86 10 105 -48 16 -48 36 -41 126 46 41 39 81 69 92 69 31 0 52 -11
52 -26 0 -17 0 -17 38 2 26 12 35 13 54 3 13 -7 29 -14 36 -15 25 -4 44 -28
39 -48 -3 -12 -17 -52 -31 -90 -50 -133 -116 -210 -225 -266 -57 -28 -62 -33
-106 -120 -138 -274 -277 -432 -405 -463 l-51 -12 6 -55 c3 -30 8 -65 11 -77
2 -13 0 -23 -5 -23 -10 0 -16 23 -27 103 -4 27 -12 50 -18 52 -125 34 -214
115 -330 297 -64 101 -23 70 64 -49 129 -174 192 -223 293 -223 136 0 260 126
436 446 61 110 63 112 126 144 78 39 156 119 190 192 27 58 30 74 15 83 -20
12 -50 -7 -81 -51 -17 -25 -33 -43 -36 -40 -3 2 10 25 28 51 32 44 65 63 93
52 17 -7 41 45 32 68 -12 33 -50 15 -117 -55 -37 -39 -71 -70 -74 -70 -11 0
52 75 96 114 22 21 38 40 35 43 -13 13 -61 -12 -121 -62 -35 -30 -68 -55 -72
-55 -4 0 17 25 46 54 45 45 52 58 42 69 -19 24 -49 8 -110 -55 -75 -79 -151
-111 -151 -63 0 9 -7 30 -16 46 -12 24 -21 30 -42 27 -26 -3 -27 -5 -24 -53 2
-27 -3 -72 -10 -100 -11 -46 -26 -63 -177 -210 -90 -88 -157 -148 -149 -134
16 26 15 28 -64 145 -96 141 -178 250 -240 319 l-46 50 -48 -19 c-67 -25 -153
-46 -189 -45 -20 1 -11 5 30 14 83 19 149 49 206 94 216 172 267 461 120 688
-169 262 -532 297 -759 75 -211 -208 -201 -545 21 -754 l50 -47 -47 -52 c-26
-29 -64 -89 -85 -133 -68 -146 -62 -136 -55 -98 3 17 3 32 1 32 -6 0 -107
-105 -191 -198 -47 -51 -55 -66 -45 -78 27 -33 -10 -8 -144 99 -78 61 -155
121 -170 132 -31 23 -71 125 -62 156 10 32 -4 59 -31 59 -19 0 -28 -8 -40 -35
-7 -19 -14 -44 -14 -55 0 -19 -4 -21 -32 -15 -43 10 -52 15 -122 69 -60 47
-99 58 -109 31 -5 -12 40 -56 92 -92 2 -2 2 -5 -1 -8 -2 -3 -28 13 -57 34 -62
47 -108 68 -121 55 -6 -6 11 -26 45 -53 54 -43 93 -81 83 -81 -3 0 -36 25 -74
55 -90 72 -142 74 -114 4 11 -26 16 -29 42 -24 35 8 66 -10 99 -57 22 -31 20
-30 -24 10 -51 46 -59 49 -77 27 -16 -19 24 -89 83 -146 36 -36 168 -109 195
-109 5 0 32 -30 58 -67 246 -348 403 -471 542 -422 22 8 32 18 36 40 3 16 9
42 12 59 3 16 10 33 16 36 6 4 8 -1 5 -12 -5 -17 -47 -283 -47 -298 0 -3 -5
-6 -10 -6 -6 0 -8 10 -6 23 3 12 8 48 11 80 7 58 6 59 -16 52 -91 -29 -209 17
-318 124 -66 65 -181 211 -251 319 -24 38 -43 54 -69 63 -99 31 -214 128 -249
209 -8 19 -18 42 -23 50 -40 66 -40 104 -1 116 9 3 27 11 39 16 12 6 35 8 50
5 22 -4 32 -1 41 14 18 29 55 23 104 -16 107 -85 158 -102 158 -52 0 34 37 77
65 77 33 0 54 -35 53 -88 -1 -67 27 -115 92 -161 32 -22 98 -74 147 -115 l90
-74 37 43 c20 24 85 95 144 157 60 62 121 137 137 166 16 29 43 70 61 91 l33
38 -62 64 c-168 174 -203 407 -92 618 60 114 187 224 305 266 24 8 81 19 128
25 146 16 212 69 212 167 0 76 -75 146 -132 124 -21 -9 -21 -10 -3 -11 18 0
18 -2 -5 -20 -20 -15 -23 -21 -12 -32 11 -11 20 -9 52 10 50 28 52 12 5 -35
-29 -29 -40 -34 -63 -29 -34 9 -62 41 -62 73 0 14 13 38 30 55 27 26 36 30 68
25 20 -3 45 -8 55 -12 13 -6 17 -2 17 18 0 46 -10 57 -51 57 -41 0 -57 16 -45
45 8 21 23 19 29 -5z m-1039 -496 c9 -3 16 -17 16 -30 0 -16 9 -28 29 -38 65
-34 128 -142 136 -233 4 -54 4 -55 -5 -18 -31 122 -42 146 -89 197 -44 48 -52
52 -92 53 -37 0 -46 4 -54 24 -10 22 -14 23 -85 19 -80 -5 -165 -38 -175 -67
-3 -9 -18 -23 -33 -32 -41 -23 -76 -100 -80 -179 -4 -60 -2 -66 20 -75 26 -11
36 -49 17 -71 -16 -19 27 -83 83 -124 141 -102 347 -62 439 86 19 31 20 38 8
60 -17 34 -1 59 37 59 25 0 29 -4 32 -32 3 -27 -1 -33 -22 -39 -14 -3 -29 -17
-34 -32 -17 -46 -77 -106 -138 -137 -74 -37 -168 -45 -243 -20 -55 18 -142 89
-166 135 -8 15 -25 30 -39 34 -32 8 -42 40 -22 71 9 14 16 45 16 73 0 61 13
101 57 174 30 48 45 61 107 93 64 32 80 36 149 36 42 0 79 4 82 10 7 10 26 12
49 3z m1722 -46 c8 -13 7 -80 -2 -110 -6 -19 -44 -23 -103 -12 -27 6 -31 11
-31 39 0 18 3 47 6 64 6 30 8 31 65 31 35 0 61 -5 65 -12z m194 -68 c0 -5 -4
-10 -9 -10 -6 0 -13 5 -16 10 -3 6 1 10 9 10 9 0 16 -4 16 -10z m-1025 -107
c-30 -80 -116 -404 -109 -414 3 -5 21 -11 42 -14 70 -12 85 -16 76 -24 -13
-13 -135 5 -145 21 -10 15 -13 1 46 198 70 234 76 250 87 250 6 0 7 -8 3 -17z
m1294 -125 c11 -26 21 -50 21 -54 0 -9 -183 5 -192 14 -4 4 8 27 28 52 19 25
46 60 60 78 l26 34 18 -39 c9 -21 27 -59 39 -85z m-2288 36 c17 -21 0 -49 -31
-49 -31 0 -48 28 -31 49 8 9 21 16 31 16 10 0 23 -7 31 -16z m813 -10 c30 -29
14 -155 -21 -168 -33 -13 -45 14 -41 87 3 53 8 72 23 83 23 17 20 17 39 -2z
m336 -23 c23 -43 5 -153 -27 -165 -30 -12 -43 14 -43 82 0 47 5 71 17 84 21
23 40 23 53 -1z m875 -288 c-1 -18 -6 -23 -25 -23 -6 0 -5 8 2 20 16 25 25 26
23 3z m-421 -64 c3 -18 0 -41 -9 -59 -22 -43 -128 -120 -143 -105 -4 4 4 15
18 26 85 66 101 81 95 99 -6 20 10 70 24 70 4 0 11 -14 15 -31z m176 -99 c0
-5 -5 -10 -11 -10 -5 0 -7 5 -4 10 3 6 8 10 11 10 2 0 4 -4 4 -10z m-807 -16
c20 -3 37 -10 37 -16 0 -8 -23 -6 -102 8 -16 3 -28 10 -28 16 0 5 12 7 28 4
15 -3 44 -8 65 -12z m-673 -14 c0 -5 -4 -10 -9 -10 -6 0 -13 5 -16 10 -3 6 1
10 9 10 9 0 16 -4 16 -10z m727 -1445 c0 -8 -4 -15 -8 -15 -11 0 -20 16 -12
24 11 11 20 7 20 -9z m-267 -56 l0 -50 48 3 c34 2 47 7 47 18 0 10 -12 16 -32
18 -40 4 -41 11 -8 42 14 13 25 19 25 13 0 -6 -8 -14 -17 -18 -15 -5 -12 -9
15 -20 21 -9 32 -21 32 -35 0 -13 7 -20 20 -20 14 0 19 6 17 21 -2 25 23 45
47 36 10 -4 16 -18 16 -37 l0 -31 -112 3 -113 3 -3 53 c-2 31 1 52 7 52 6 0
11 -22 11 -51z m320 -4 l0 -55 -46 0 -46 0 23 19 c21 17 22 22 11 47 l-12 29
20 -24 c22 -25 26 -41 10 -41 -5 0 -10 -4 -10 -10 0 -5 9 -10 20 -10 17 0 20
7 20 50 0 28 2 50 5 50 3 0 5 -25 5 -55z m37 -27 c-2 -18 -4 -6 -4 27 0 33 2
48 4 33 2 -15 2 -42 0 -60z m340 58 c-16 -13 -25 -32 -9 -23 18 11 52 -13 52
-38 l0 -26 -152 3 -153 3 -2 25 c-3 25 -3 25 7 3 8 -20 17 -23 60 -23 47 0 50
2 50 25 0 14 4 25 8 25 5 0 8 -10 8 -22 -1 -17 5 -24 22 -26 19 -3 22 1 22 28
0 19 4 29 10 25 6 -4 8 -10 5 -15 -3 -4 -2 -15 1 -24 4 -12 20 -16 56 -16 42
0 49 3 46 18 -2 11 -14 18 -36 20 -17 2 -32 6 -32 9 0 12 43 53 49 47 3 -3 -2
-11 -12 -18z m-751 -112 c-3 -8 -13 -14 -23 -14 -17 1 -17 1 0 11 12 7 18 24
19 57 l1 47 4 -44 c3 -24 2 -50 -1 -57z m876 36 c13 0 18 8 18 25 0 14 5 25
11 25 6 0 9 -12 7 -27 -2 -22 -9 -29 -31 -31 -15 -2 -32 -12 -37 -23 -6 -10
-18 -19 -28 -19 -16 1 -16 1 1 11 11 7 17 23 18 52 1 41 1 41 12 15 6 -16 19
-28 29 -28z"/>
<path d="M2496 2768 c-3 -7 -6 -30 -8 -50 -4 -42 3 -48 62 -48 l38 0 4 46 c2
26 -1 48 -7 49 -44 13 -86 15 -89 3z"/>
<path d="M2964 2509 c-44 -60 -38 -69 44 -69 51 0 53 1 46 23 -8 27 -43 97
-48 97 -3 0 -21 -23 -42 -51z"/>
<path d="M741 2511 c-15 -10 -8 -41 9 -41 15 0 25 29 14 40 -5 5 -15 5 -23 1z"/>
<path d="M1704 486 c-7 -19 3 -36 22 -36 10 0 14 8 12 22 -4 26 -26 36 -34 14z"/>
</g>
</svg>
